HIERARCHY
ROOT joint_0
{
	OFFSET 0.000000 0.000000 0.000000
	CHANNELS 6 Xposition Yposition Zposition Zrotation Yrotation Xrotation 
	JOINT joint_1
	{
		OFFSET 4.520508 -1.939880 86.268921
		CHANNELS 3 Zrotation Yrotation Xrotation
		JOINT joint_2
		{
			OFFSET -4.459717 -0.438538 78.934082
			CHANNELS 3 Zrotation Yrotation Xrotation
			JOINT joint_3
			{
				OFFSET -5.197754 -0.781128 78.796997
				CHANNELS 3 Zrotation Yrotation Xrotation
				JOINT joint_4
				{
					OFFSET 2.952026 -3.710571 109.812988
					CHANNELS 3 Zrotation Yrotation Xrotation
					JOINT joint_5
					{
						OFFSET 24.716797 -5.488037 87.903931
						CHANNELS 3 Zrotation Yrotation Xrotation
						End Site
						{
							OFFSET 0.000000 0.000000 0.000000
						}
					}
				}
				JOINT joint_6
				{
					OFFSET -3.154419 -25.484680 60.934937
					CHANNELS 3 Zrotation Yrotation Xrotation
					JOINT joint_7
					{
						OFFSET -28.997192 -144.472229 -32.671997
						CHANNELS 3 Zrotation Yrotation Xrotation
						JOINT joint_8
						{
							OFFSET 19.867676 -18.614380 -249.897949
							CHANNELS 3 Zrotation Yrotation Xrotation
							JOINT joint_9
							{
								OFFSET 5.281982 -13.816650 -264.993042
								CHANNELS 3 Zrotation Yrotation Xrotation
								End Site
								{
									OFFSET 0.000000 0.000000 0.000000
								}
							}
						}
					}
				}
				JOINT joint_10
				{
					OFFSET 6.494995 21.336792 62.257935
					CHANNELS 3 Zrotation Yrotation Xrotation
					JOINT joint_11
					{
						OFFSET 31.106567 145.200745 -27.007935
						CHANNELS 3 Zrotation Yrotation Xrotation
						JOINT joint_12
						{
							OFFSET 29.119141 24.684326 -248.460083
							CHANNELS 3 Zrotation Yrotation Xrotation
							JOINT joint_13
							{
								OFFSET 21.220093 31.248413 -262.703979
								CHANNELS 3 Zrotation Yrotation Xrotation
								End Site
								{
									OFFSET 0.000000 0.000000 0.000000
								}
							}
						}
					}
				}
			}
		}
	}
	JOINT joint_14
	{
		OFFSET -15.458496 -88.861694 -109.593018
		CHANNELS 3 Zrotation Yrotation Xrotation
		JOINT joint_15
		{
			OFFSET -6.193359 6.837952 -506.710999
			CHANNELS 3 Zrotation Yrotation Xrotation
			JOINT joint_16
			{
				OFFSET -35.096680 13.289795 -435.677025
				CHANNELS 3 Zrotation Yrotation Xrotation
				JOINT joint_17
				{
					OFFSET 158.491211 -33.916565 -71.771002
					CHANNELS 3 Zrotation Yrotation Xrotation
					End Site
					{
						OFFSET 0.000000 0.000000 0.000000
					}
				}
			}
		}
	}
	JOINT joint_18
	{
		OFFSET 23.116943 86.574158 -110.082031
		CHANNELS 3 Zrotation Yrotation Xrotation
		JOINT joint_19
		{
			OFFSET -6.125854 -0.283569 -506.757019
			CHANNELS 3 Zrotation Yrotation Xrotation
			JOINT joint_20
			{
				OFFSET -63.240234 11.589966 -432.537994
				CHANNELS 3 Zrotation Yrotation Xrotation
				JOINT joint_21
				{
					OFFSET 156.074219 -41.487305 -73.077999
					CHANNELS 3 Zrotation Yrotation Xrotation
					End Site
					{
						OFFSET 0.000000 0.000000 0.000000
					}
				}
			}
		}
	}
}
MOTION
Frames: 15
Frame Time: 0.016667
-2054.144043 774.376099 1138.605957 19.760709 1.756846 -0.569163 -1.090877 1.339257 0.216090 -1.083239 -0.161777 -0.089079 -1.065910 0.180879 0.103353 -0.549918 6.265794 2.739132 0.000000 0.000000 0.000000 3.460199 -0.664834 -1.424078 0.314782 -0.649583 2.108235 0.044823 -1.354521 -2.225240 0.000000 0.000000 0.000000 -0.652595 -1.923273 0.909921 0.214727 -2.622225 4.874373 -0.111576 -0.950910 0.413050 0.000000 0.000000 0.000000 -0.585051 -3.188084 0.684630 -0.414300 3.298128 -0.964071 -0.516407 -2.034421 -0.670218 0.000000 0.000000 0.000000 -0.583660 -4.502671 -0.773471 -0.563255 5.087404 -0.315525 -0.598775 -2.755006 -1.013092 0.000000 0.000000 0.000000 
-2052.634277 773.468933 1138.706055 19.981132 1.529166 -0.482544 -1.095826 1.413629 0.199228 -1.087257 -0.218508 -0.078994 -1.069536 0.238663 0.099465 -0.520845 6.181416 2.629965 0.000000 0.000000 0.000000 3.456915 -0.575765 -1.486080 0.323650 -0.589685 2.178507 0.024540 -1.160972 -2.385528 0.000000 0.000000 0.000000 -0.619394 -1.885675 0.820274 0.215286 -2.609087 4.870618 -0.112984 -0.952050 0.407880 0.000000 0.000000 0.000000 -0.623305 -2.613289 0.497475 -0.491166 2.772000 -0.642542 -0.566695 -1.746832 -0.631474 0.000000 0.000000 0.000000 -0.653605 -3.977998 -0.773448 -0.644169 4.603114 -0.340840 -0.684339 -2.593774 -1.010275 0.000000 0.000000 0.000000 
-2051.123535 772.561890 1138.807007 20.200200 1.299796 -0.395681 -1.100877 1.489629 0.178444 -1.091311 -0.275935 -0.066973 -1.073310 0.297236 0.096284 -0.491104 6.096574 2.518627 0.000000 0.000000 0.000000 3.454968 -0.487329 -1.547880 0.331488 -0.529758 2.248866 0.003136 -0.966099 -2.543837 0.000000 0.000000 0.000000 -0.584628 -1.848502 0.732635 0.215714 -2.595902 4.865452 -0.114303 -0.952611 0.402891 0.000000 0.000000 0.000000 -0.666109 -2.035541 0.311319 -0.569905 2.242416 -0.322860 -0.615266 -1.447056 -0.589335 0.000000 0.000000 0.000000 -0.725443 -3.451262 -0.772761 -0.724759 4.116153 -0.367988 -0.767734 -2.424269 -1.004315 0.000000 0.000000 0.000000 
-2049.789062 771.592224 1138.885986 20.401181 1.067128 -0.321498 -1.102583 1.584018 0.168160 -1.092616 -0.323593 -0.059992 -1.074207 0.344063 0.095479 -0.466804 6.013492 2.428334 0.000000 0.000000 0.000000 3.466173 -0.418948 -1.624989 0.336197 -0.481914 2.283832 -0.017490 -0.785523 -2.687115 0.000000 0.000000 0.000000 -0.561117 -1.817045 0.658129 0.212991 -2.573728 4.813054 -0.120740 -0.967942 0.363811 0.000000 0.000000 0.000000 -0.703734 -1.509147 0.202764 -0.635255 1.802903 -0.116101 -0.657602 -1.197489 -0.555102 0.000000 0.000000 0.000000 -0.795302 -2.978469 -0.760619 -0.800240 3.734875 -0.391615 -0.843125 -2.306220 -1.008326 0.000000 0.000000 0.000000 
-2048.742676 770.496765 1138.938965 20.567452 0.823476 -0.260061 -1.096541 1.720341 0.169112 -1.086535 -0.350410 -0.061273 -1.067510 0.370833 0.099542 -0.450989 5.919477 2.370182 0.000000 0.000000 0.000000 3.515857 -0.382986 -1.726629 0.337806 -0.452776 2.274592 -0.037789 -0.614653 -2.820979 0.000000 0.000000 0.000000 -0.550111 -1.803319 0.597405 0.206663 -2.553533 4.709524 -0.134923 -1.000615 0.265446 0.000000 0.000000 0.000000 -0.724865 -1.064421 0.224576 -0.673320 1.514230 -0.116065 -0.690682 -1.029292 -0.534098 0.000000 0.000000 0.000000 -0.866320 -2.560825 -0.726114 -0.874133 3.474127 -0.423507 -0.916067 -2.285412 -1.037008 0.000000 0.000000 0.000000 
-2047.872437 769.337708 1138.970947 20.716369 0.576155 -0.211674 -1.087669 1.875937 0.181083 -1.078178 -0.366579 -0.065496 -1.058662 0.384307 0.104350 -0.440406 5.827896 2.332481 0.000000 0.000000 0.000000 3.580759 -0.366515 -1.842396 0.336253 -0.434074 2.227896 -0.056978 -0.458291 -2.939917 0.000000 0.000000 0.000000 -0.549178 -1.794418 0.547776 0.197085 -2.524560 4.560491 -0.154333 -1.047096 0.133381 0.000000 0.000000 0.000000 -0.736664 -0.671742 0.323568 -0.695783 1.317708 -0.228001 -0.718673 -0.919990 -0.523391 0.000000 0.000000 0.000000 -0.933966 -2.196496 -0.680956 -0.942937 3.319553 -0.450103 -0.982733 -2.321331 -1.077813 0.000000 0.000000 0.000000 
-2047.014038 768.237610 1138.975952 20.885994 0.346207 -0.190187 -1.089804 1.987883 0.217556 -1.083246 -0.377869 -0.074286 -1.062902 0.394705 0.111006 -0.431090 5.767867 2.301370 0.000000 0.000000 0.000000 3.606878 -0.354777 -1.959545 0.329609 -0.417179 2.127357 -0.070476 -0.345469 -3.010893 0.000000 0.000000 0.000000 -0.557506 -1.760012 0.510471 0.182309 -2.449988 4.335711 -0.176005 -1.112243 0.011789 0.000000 0.000000 0.000000 -0.756862 -0.294365 0.418706 -0.726109 1.126299 -0.281037 -0.749675 -0.850188 -0.522467 0.000000 0.000000 0.000000 -0.983012 -1.935764 -0.647465 -0.992559 3.334026 -0.427127 -1.025503 -2.347055 -1.104789 0.000000 0.000000 0.000000 
-2046.062622 767.227478 1138.951050 21.109255 0.131279 -0.213042 -1.115121 2.036657 0.292763 -1.114844 -0.389068 -0.085337 -1.093473 0.404689 0.117512 -0.420603 5.764973 2.269550 0.000000 0.000000 0.000000 3.566035 -0.344038 -2.077431 0.316154 -0.400769 1.955613 -0.075726 -0.281051 -3.004242 0.000000 0.000000 0.000000 -0.580799 -1.677750 0.488182 0.161662 -2.303453 4.023693 -0.201302 -1.210379 -0.088970 0.000000 0.000000 0.000000 -0.796020 0.099338 0.484293 -0.777478 0.905453 -0.189213 -0.789294 -0.833914 -0.536828 0.000000 0.000000 0.000000 -1.006101 -1.803833 -0.626504 -1.016394 3.577084 -0.330232 -1.035205 -2.323700 -1.103377 0.000000 0.000000 0.000000 
-2045.122803 766.275330 1138.900024 21.354477 -0.066083 -0.263328 -1.152244 2.042507 0.389807 -1.160009 -0.396519 -0.098135 -1.137422 0.411610 0.125525 -0.411306 5.794501 2.243957 0.000000 0.000000 0.000000 3.487382 -0.338909 -2.195099 0.297645 -0.386146 1.728027 -0.074576 -0.260469 -2.951405 0.000000 0.000000 0.000000 -0.614332 -1.569101 0.474554 0.135577 -2.112089 3.639984 -0.228982 -1.327828 -0.179573 0.000000 0.000000 0.000000 -0.844390 0.478621 0.546963 -0.837401 0.687767 -0.038700 -0.832306 -0.856310 -0.560942 0.000000 0.000000 0.000000 -1.011167 -1.774755 -0.617642 -1.022499 3.986935 -0.181011 -1.020094 -2.286780 -1.086800 0.000000 0.000000 0.000000 
-2044.349365 765.413147 1138.827026 21.559152 -0.219957 -0.303366 -1.181728 2.009560 0.478055 -1.197172 -0.395638 -0.114895 -1.173139 0.410046 0.134896 -0.406574 5.823988 2.233787 0.000000 0.000000 0.000000 3.416960 -0.334209 -2.298384 0.277975 -0.363013 1.479625 -0.068073 -0.306141 -2.911506 0.000000 0.000000 0.000000 -0.627898 -1.466812 0.460976 0.104000 -1.918289 3.194620 -0.252102 -1.427678 -0.249704 0.000000 0.000000 0.000000 -0.887991 0.789165 0.603251 -0.889761 0.486671 0.083727 -0.869768 -0.857630 -0.578031 0.000000 0.000000 0.000000 -1.006251 -1.818938 -0.641802 -1.019047 4.444065 -0.002460 -0.989278 -2.280918 -1.071076 0.000000 0.000000 0.000000 
-2043.797363 764.632690 1138.713989 21.718108 -0.312527 -0.321723 -1.199096 1.918675 0.546449 -1.220989 -0.380120 -0.132881 -1.195476 0.395207 0.145990 -0.409481 5.853954 2.248659 0.000000 0.000000 0.000000 3.359253 -0.320593 -2.378221 0.257696 -0.319455 1.210226 -0.054067 -0.453977 -2.904740 0.000000 0.000000 0.000000 -0.609264 -1.384879 0.436606 0.066887 -1.740592 2.686932 -0.264977 -1.482545 -0.287370 0.000000 0.000000 0.000000 -0.929616 1.013079 0.662281 -0.936911 0.284697 0.135077 -0.907150 -0.803192 -0.583189 0.000000 0.000000 0.000000 -0.997373 -1.954342 -0.710191 -1.011996 4.944934 0.208564 -0.946878 -2.343820 -1.068137 0.000000 0.000000 0.000000 
-2043.410767 763.942383 1138.578979 21.836767 -0.360794 -0.330818 -1.208902 1.786447 0.610634 -1.237038 -0.355429 -0.158005 -1.209527 0.373522 0.159265 -0.417138 5.881791 2.279271 0.000000 0.000000 0.000000 3.310120 -0.308184 -2.442273 0.235580 -0.267363 0.918138 -0.035121 -0.667953 -2.911012 0.000000 0.000000 0.000000 -0.571065 -1.308166 0.407599 0.024107 -1.561499 2.122577 -0.272997 -1.519318 -0.304640 0.000000 0.000000 0.000000 -0.966501 1.167036 0.716179 -0.977130 0.100576 0.158225 -0.939960 -0.729709 -0.582216 0.000000 0.000000 0.000000 -0.979064 -2.163644 -0.809778 -0.995383 5.492698 0.447039 -0.887304 -2.435242 -1.064746 0.000000 0.000000 0.000000 
-2043.173462 763.390686 1138.482056 21.865865 -0.392185 -0.326185 -1.199048 1.669941 0.657676 -1.231320 -0.329424 -0.173833 -1.202875 0.350760 0.165082 -0.425371 5.877682 2.311224 0.000000 0.000000 0.000000 3.280382 -0.317789 -2.502688 0.213796 -0.234427 0.637025 -0.019313 -0.857320 -2.928050 0.000000 0.000000 0.000000 -0.543502 -1.226039 0.388973 -0.024021 -1.366043 1.522213 -0.285867 -1.581835 -0.328829 0.000000 0.000000 0.000000 -0.975251 1.249363 0.733981 -0.987652 0.002625 0.194742 -0.944649 -0.688083 -0.575330 0.000000 0.000000 0.000000 -0.940294 -2.364683 -0.925215 -0.957903 5.981459 0.674199 -0.807679 -2.489890 -1.042216 0.000000 0.000000 0.000000 
-2043.142578 763.026611 1138.453003 21.782809 -0.415805 -0.298857 -1.162076 1.601889 0.680751 -1.195356 -0.308581 -0.174710 -1.167431 0.329247 0.161801 -0.433330 5.819359 2.340521 0.000000 0.000000 0.000000 3.284961 -0.358027 -2.560584 0.192336 -0.225569 0.364774 -0.008105 -1.004854 -2.958402 0.000000 0.000000 0.000000 -0.534118 -1.138518 0.378147 -0.079652 -1.151968 0.877703 -0.307228 -1.687985 -0.365970 0.000000 0.000000 0.000000 -0.945527 1.249204 0.687653 -0.958648 0.028765 0.270739 -0.910662 -0.700170 -0.562432 0.000000 0.000000 0.000000 -0.872634 -2.547369 -1.066868 -0.891219 6.403152 0.883446 -0.702694 -2.476322 -0.989699 0.000000 0.000000 0.000000 
-2043.259888 762.800293 1138.463013 21.611424 -0.421894 -0.256509 -1.105920 1.547598 0.685058 -1.138355 -0.285152 -0.167346 -1.111747 0.308323 0.154273 -0.441793 5.727252 2.370158 0.000000 0.000000 0.000000 3.309946 -0.420914 -2.615611 0.171456 -0.236327 0.102954 0.000248 -1.127710 -2.999465 0.000000 0.000000 0.000000 -0.535306 -1.046235 0.369544 -0.141324 -0.925389 0.203482 -0.333531 -1.819618 -0.409953 0.000000 0.000000 0.000000 -0.887812 1.176901 0.603927 -0.900479 0.141231 0.360367 -0.849240 -0.744878 -0.544117 0.000000 0.000000 0.000000 -0.784233 -2.723553 -1.224197 -0.803435 6.767732 1.079288 -0.579799 -2.428950 -0.919793 0.000000 0.000000 0.000000 
